<?xml version="1.0" encoding="utf-8"?>
<!-- Generator: Adobe Illustrator 21.0.0, SVG Export Plug-In . SVG Version: 6.00 Build 0)  -->
<svg version="1.1" id="Layer_1" xmlns="http://www.w3.org/2000/svg" xmlns:xlink="http://www.w3.org/1999/xlink" x="0px" y="0px"
	 viewBox="0 0 512 512" style="enable-background:new 0 0 512 512;" xml:space="preserve">
<g>
	<path d="M507.8,161.5c-4.2-9.9-11.1-18.2-19.9-24.1c-4.4-3-9.2-5.3-14.4-6.9c-5.2-1.6-10.7-2.5-16.3-2.5h-67.4
		c-0.8,0-1.6-0.1-2.6-0.4c-1.4-0.4-3-1.1-4.7-2.2c-1.4-1-2.8-2.1-4-3.4l-29.4-46.6c-0.4-0.6-1.1-1.5-1.6-2.1
		c-4.7-5.4-10.4-10.1-17-13.3c-6.6-3.3-14.1-5.2-21.9-5.2H203.4c-7.8,0-15.4,1.9-21.9,5.2c-6.6,3.3-12.3,7.9-17,13.3
		c-0.5,0.6-1.2,1.5-1.6,2.1l-29.7,47.1c-1.8,1.9-3.6,3.3-5.1,4.1c-0.9,0.5-1.7,0.8-2.4,1c-0.7,0.2-1.4,0.3-2.2,0.3h-0.1v-9
		c0-4.8-2-9.5-5.4-12.9s-8.1-5.4-12.9-5.4H77.7c-4.8,0-9.5,2-12.9,5.4c-3.4,3.4-5.4,8.1-5.4,12.9v9h-4.5c-7.5,0-14.8,1.5-21.4,4.3
		c-9.9,4.2-18.2,11.1-24.1,19.9c-3,4.4-5.3,9.2-6.9,14.4S0,177.2,0,182.9v219.4c0,7.5,1.5,14.8,4.3,21.4
		c4.2,9.9,11.1,18.2,19.9,24.1c4.4,3,9.2,5.3,14.4,6.9c5.2,1.6,10.7,2.5,16.3,2.5h402.3c7.5,0,14.8-1.5,21.4-4.3
		c9.9-4.2,18.2-11.1,24.1-19.9c3-4.4,5.3-9.2,6.9-14.4c1.6-5.2,2.5-10.7,2.5-16.3V182.9C512.1,175.4,510.6,168.1,507.8,161.5z
		 M475.4,402.2c0,2.6-0.5,4.9-1.4,7.1c-1.4,3.3-3.7,6.1-6.6,8.1c-1.5,1-3.1,1.8-4.8,2.3c-1.7,0.5-3.5,0.8-5.4,0.8H54.9
		c-2.6,0-4.9-0.5-7.1-1.4c-3.3-1.4-6.1-3.7-8.1-6.6c-1-1.5-1.8-3.1-2.3-4.8c-0.5-1.7-0.8-3.5-0.8-5.4V182.9c0-2.6,0.5-4.9,1.4-7.1
		c1.4-3.3,3.7-6.1,6.6-8.1c1.5-1,3.1-1.8,4.8-2.3s3.5-0.8,5.4-0.8h68.6c4.2,0,8.2-0.6,12-1.6c5.7-1.6,10.7-4.2,15.1-7.3
		c4.4-3.1,8.1-6.7,11.3-10.4c0.5-0.6,1.2-1.5,1.6-2.1L193,96.3c1.5-1.5,3.1-2.7,4.7-3.5c1.9-0.9,3.7-1.3,5.7-1.4h105.1
		c2,0,3.8,0.4,5.7,1.4c1.5,0.8,3.2,2,4.7,3.6l29.6,46.8c0.4,0.6,1.1,1.5,1.6,2.1l0.1,0c4.6,5.4,10.3,10.1,16.8,13.5
		c3.3,1.7,6.9,3.2,10.7,4.2s7.8,1.6,12,1.6h67.4c2.6,0,4.9,0.5,7.1,1.4c3.3,1.4,6.1,3.7,8.1,6.6c1,1.5,1.8,3.1,2.3,4.8
		c0.5,1.7,0.8,3.5,0.8,5.4V402.2z"/>
	<path d="M302.4,330.9c-13.1,10.7-29.4,16.6-46.3,16.6H256c-10.1,0-19.7-2-28.4-5.7c-13.1-5.5-24.3-14.8-32.2-26.5
		c-3.9-5.8-7.1-12.3-9.2-19.1c-0.4-1.2-0.7-2.5-1-3.7c5.4,0.6,11-1.1,15.1-5.2c7.2-7.2,7.2-18.8,0.1-25.9l-22.9-22.9
		c-7.1-7.1-18.7-7.1-25.9,0l-22.9,22.9c-7.1,7.1-7.1,18.7,0,25.9c5.1,5.1,12.5,6.5,19,4.3c1.4,8.9,3.9,17.5,7.3,25.5
		c8.3,19.7,22.2,36.4,39.7,48.2c8.7,5.9,18.4,10.6,28.7,13.8c10.3,3.2,21.3,4.9,32.6,4.9h0.1c25.3,0,49.9-8.8,69.5-24.9
		c7.8-6.4,8.9-17.9,2.5-25.7C321.7,325.6,310.2,324.5,302.4,330.9z"/>
	<path d="M364.1,257.1c-1.4-8.9-3.9-17.6-7.3-25.6c-8.3-19.7-22.2-36.4-39.7-48.2c-8.8-5.9-18.4-10.6-28.7-13.8
		c-10.3-3.2-21.3-4.9-32.6-4.9c0,0,0,0-0.1,0c-25.5,0-50.2,8.9-69.9,25.2c-7.8,6.4-8.9,18-2.4,25.7c6.4,7.8,18,8.9,25.7,2.4
		c13.1-10.8,29.6-16.8,46.6-16.8c10.1,0,19.7,2,28.5,5.7c13.1,5.5,24.3,14.8,32.2,26.5c3.9,5.8,7.1,12.3,9.2,19.1
		c0.4,1.3,0.7,2.5,1,3.8c-5.3-0.6-10.8,1.2-14.9,5.2c-7.1,7.1-7.1,18.7,0,25.9l22.9,22.9c3.4,3.4,8.1,5.4,12.9,5.4s9.5-2,12.9-5.4
		l22.9-22.9c7.1-7.1,7.1-18.7,0-25.9C378.1,256.2,370.5,254.8,364.1,257.1z"/>
</g>
</svg>
